<svg xmlns="http://www.w3.org/2000/svg" width="19.36" height="18.335" viewBox="0 0 19.36 18.335"><defs><style>.a,.b{fill:#f29544;stroke:#f29544;}.a{stroke-width:0.6px;}.b{stroke-width:0.5px;}</style></defs><g transform="translate(0.257 0.257)"><path class="a" d="M98.2,322.332a2.245,2.245,0,1,0,2.245,2.245A2.245,2.245,0,0,0,98.2,322.332Zm0,3.665a1.42,1.42,0,1,1,1.42-1.42A1.42,1.42,0,0,1,98.2,326Zm0,0" transform="translate(-91.993 -309.045)"/><path class="b" d="M18.438,4.244H3.865l-.3-1.663A2.48,2.48,0,0,0,1.558.575L.481.385A.413.413,0,1,0,.337,1.2l1.081.19A1.651,1.651,0,0,1,2.755,2.725l1.461,8.242a2.059,2.059,0,0,0,2.03,1.7h8.667a2.058,2.058,0,0,0,1.977-1.465l1.94-6.43a.432.432,0,0,0-.062-.367.418.418,0,0,0-.33-.165ZM16.1,10.963a1.229,1.229,0,0,1-1.184.879H6.251a1.232,1.232,0,0,1-1.217-1.024L4.014,5.065H17.885Zm0,0" transform="translate(0.004 -0.379)"/><path class="a" d="M308.2,322.332a2.245,2.245,0,1,0,2.245,2.245A2.245,2.245,0,0,0,308.2,322.332Zm0,3.665a1.42,1.42,0,1,1,1.42-1.42A1.42,1.42,0,0,1,308.2,326Zm0,0" transform="translate(-293.326 -309.045)"/></g></svg>