<svg xmlns="http://www.w3.org/2000/svg" width="17.683" height="11.789" viewBox="0 0 17.683 11.789"><defs><style>.a{fill:#707070;}</style></defs><path class="a" d="M8.842,66.456a3.406,3.406,0,0,0-.959.153,1.7,1.7,0,0,1,.222.829,1.719,1.719,0,0,1-1.719,1.719,1.7,1.7,0,0,1-.829-.222,3.429,3.429,0,1,0,3.285-2.479Zm8.735,2.99A9.846,9.846,0,0,0,8.842,64,9.848,9.848,0,0,0,.107,69.446a.993.993,0,0,0,0,.9,9.846,9.846,0,0,0,8.735,5.446,9.848,9.848,0,0,0,8.735-5.446.993.993,0,0,0,0-.9ZM8.842,74.315a8.351,8.351,0,0,1-7.3-4.421,8.351,8.351,0,0,1,7.3-4.421,8.351,8.351,0,0,1,7.3,4.421,16.433,16.433,0,0,1-3.549,3.5A13.879,13.879,0,0,1,8.842,74.315Z" transform="translate(-0.001 -64)"/></svg>