<svg xmlns="http://www.w3.org/2000/svg" width="455.997" height="283.377" viewBox="0 0 455.997 283.377"><defs><style>.a{fill:#f0f0f0;opacity:0.6;}.b,.c{fill:#707070;}.c{opacity:0.5;}</style></defs><g transform="translate(-805.519 -510.576)"><path class="a" d="M4485.156,475.145c-.021.091-.046.182-.069.276l-2.44.006-9.051.033-29.632.1-47.078.161-124.28.429-3.322.012h-2.272l-16.182-.008h-2.09l-183.238-.074a176.856,176.856,0,0,1-8.338-16.4c-7.339-16.214-16.945-42.521-17.464-70.057a110.607,110.607,0,0,1,1.459-20.577,85.223,85.223,0,0,1,20.488-43.273c41.971-47.078,100.188-45.787,121.313-41.344,96.605,20.317,77.6-11.4,138.414-30.334,33.218-10.344,57.852-5.146,75.513,6.74,26.426,17.783,37.241,50.542,37.866,68.58.4,11.489,3.975,18.138,9.212,22.482,13.888,11.524,39.454,6.87,48.463,33.42C4497.763,401.037,4497.292,427.7,4485.156,475.145Z" transform="translate(-3234.159 299.627)"/><g transform="translate(932.845 510.576)"><path class="b" d="M121.722,16.018l-1.376-9.786a7.24,7.24,0,0,0-8.177-6.16L77.063,5.009a7.437,7.437,0,0,0-6.328,8.4L72.084,23,7.514,32.082A8.729,8.729,0,0,0,.086,41.941l.749,5.324,196.233-27.6a2.41,2.41,0,0,0,2.051-2.723l-.691-4.915a6.729,6.729,0,0,0-7.6-5.727ZM82.234,10.738l27.75-3.9a4.49,4.49,0,0,1,5.072,3.821l.869,6.178L77.88,22.184l-.671-4.776A5.9,5.9,0,0,1,82.234,10.738Z" transform="matrix(0.999, -0.052, 0.052, 0.999, 0, 10.422)"/><path class="c" d="M4692.672,441.389H4507.3a3.219,3.219,0,0,1-3.22-3.219h0a3.219,3.219,0,0,1,3.22-3.219h185.371a3.22,3.22,0,0,1,3.22,3.219h0A3.22,3.22,0,0,1,4692.672,441.389Z" transform="translate(-4502.844 -379.513)"/><path class="c" d="M4689.666,678.4H4536.813l-13.907-221.342h181.482Z" transform="translate(-4516.184 -395.178)"/><path class="b" d="M0,0H154.132l-1.45,14.231L.626,14.168Z" transform="translate(20.009 269.145)"/><g transform="translate(80.996 62.726)"><rect class="b" width="2.195" height="210.684"/></g><g transform="translate(105.01 62.726)"><rect class="b" width="2.195" height="210.684"/></g><g transform="translate(53.373 62.701)"><path class="b" d="M4687.63,656.89,4683.058,446.2l2.194-.042,4.574,210.691Z" transform="translate(-4683.058 -446.157)"/></g><g transform="translate(25.155 61.674)"><path class="b" d="M4595.932,656.851l-9.741-210.7,2.193-.089,9.739,210.7Z" transform="translate(-4586.191 -446.063)"/></g><g transform="translate(129.803 61.674)"><g transform="translate(0 0.027)"><path class="b" d="M4947.632,656.89l-2.194-.041,4.573-210.691,2.2.042Z" transform="translate(-4945.438 -446.157)"/></g><g transform="translate(23.052)"><path class="b" d="M5026.767,656.851l-2.193-.089,9.741-210.7,2.193.089Z" transform="translate(-5024.574 -446.063)"/></g></g><path class="b" d="M4685.4,438.038l-181.14-.079-.175-3.036,181.482.025Z" transform="translate(-4497.36 -373.087)"/></g></g></svg>