<svg xmlns="http://www.w3.org/2000/svg" xmlns:xlink="http://www.w3.org/1999/xlink" width="152.996" height="130.33" viewBox="0 0 152.996 130.33"><defs><style>.a{opacity:0.5;}.b{clip-path:url(#a);}</style><clipPath id="a"><rect width="152.996" height="130.33"/></clipPath></defs><g class="a"><g transform="translate(0 0)"><g transform="translate(0 0)"><g class="b"><path d="M869.952,425.23a40.028,40.028,0,0,0-77.651-.044,40.077,40.077,0,0,0,3.757,79.979h15.029a5.009,5.009,0,1,0,0-10.019H796.058a30.059,30.059,0,0,1-.176-60.117,5.2,5.2,0,0,0,5.512-4.277,30.013,30.013,0,0,1,59.425,0,5.407,5.407,0,0,0,5.373,4.277,30.058,30.058,0,1,1,0,60.117H851.165a5.009,5.009,0,1,0,0,10.019h15.027a40.078,40.078,0,0,0,3.759-79.935Zm0,0" transform="translate(-753.641 -392.115)"/></g><path d="M915.651,524.6a5.01,5.01,0,0,0,7.084-7.083l-25.048-25.049a5.011,5.011,0,0,0-7.084,0l-25.048,25.049a5.009,5.009,0,0,0,7.083,7.083l16.5-16.5v63.051a5.01,5.01,0,1,0,10.02,0V508.106Zm0,0" transform="translate(-816.66 -448.087)"/></g></g></g></svg>